<svg xmlns="http://www.w3.org/2000/svg" viewBox="0 0 64 64" width="64" height="64">
  <g fill="none" fill-rule="evenodd">
    <path d="M32 32c0-6.627 5.373-12 12-12 0 6.627-5.373 12-12 12z" fill="#FFB6C1"/>
    <path d="M32 32c0-6.627-5.373-12-12-12 0 6.627 5.373 12 12 12z" fill="#FFD700"/>
    <path d="M32 32c4-4 8-8 8-14 0-2-1-3-3-3-6 0-9 4-12 7-3-3-6-7-12-7-2 0-3 1-3 3 0 6 4 10 8 14-2 2-4 5-4 9 0 6 6 8 13 8 7 0 13-2 13-8 0-4-2-7-4-9z" fill="#FF69B4" opacity="0.9"/>
    <circle cx="32" cy="28" r="2" fill="#8B4513"/>
  </g>
</svg>
